<?xml version="1.0" encoding="UTF-8" standalone="no"?>
<!-- Created with Inkscape (http://www.inkscape.org/) -->

<svg
   width="32"
   height="32"
   viewBox="0 0 32 32"
   version="1.1"
   id="svg1"
   inkscape:version="1.3 (0e150ed6c4, 2023-07-21)"
   sodipodi:docname="custom8.svg"
   xmlns:inkscape="http://www.inkscape.org/namespaces/inkscape"
   xmlns:sodipodi="http://sodipodi.sourceforge.net/DTD/sodipodi-0.dtd"
   xmlns="http://www.w3.org/2000/svg"
   xmlns:svg="http://www.w3.org/2000/svg">
  <sodipodi:namedview
     id="namedview1"
     pagecolor="#ffffff"
     bordercolor="#666666"
     borderopacity="1.0"
     inkscape:showpageshadow="2"
     inkscape:pageopacity="0.0"
     inkscape:pagecheckerboard="true"
     inkscape:deskcolor="#d1d1d1"
     inkscape:document-units="px"
     showgrid="true"
     inkscape:zoom="16.000001"
     inkscape:cx="-3.4999998"
     inkscape:cy="20.843749"
     inkscape:window-width="1920"
     inkscape:window-height="1011"
     inkscape:window-x="1440"
     inkscape:window-y="32"
     inkscape:window-maximized="1"
     inkscape:current-layer="layer1"
     showguides="true">
    <inkscape:grid
       id="grid1"
       units="px"
       originx="0"
       originy="0"
       spacingx="0.5"
       spacingy="0.5"
       empcolor="#3f3fff"
       empopacity="0.25098039"
       color="#3f3fff"
       opacity="0.1254902"
       empspacing="2"
       dotted="false"
       gridanglex="30"
       gridanglez="30"
       visible="true" />
  </sodipodi:namedview>
  <defs
     id="defs1">
    <rect
       x="-16"
       y="-3"
       width="67"
       height="47"
       id="rect2" />
  </defs>
  <g
     inkscape:label="Calque 1"
     inkscape:groupmode="layer"
     id="layer1">
    <text
       xml:space="preserve"
       id="text2"
       style="font-style:normal;font-weight:normal;font-size:40px;line-height:125%;font-family:sans-serif;letter-spacing:0px;word-spacing:0px;white-space:pre;shape-inside:url(#rect2);display:inline;fill:#000000;fill-opacity:1;stroke:none;stroke-width:1px;stroke-linecap:butt;stroke-linejoin:miter;stroke-opacity:1" />
    <path
       id="path3"
       style="font-variation-settings:normal;opacity:1;vector-effect:none;fill:#ffd800;fill-opacity:1;fill-rule:evenodd;stroke:#e38800;stroke-width:1px;stroke-linecap:butt;stroke-linejoin:miter;stroke-miterlimit:4;stroke-dasharray:none;stroke-dashoffset:0;stroke-opacity:1;-inkscape-stroke:none;stop-color:#000000;stop-opacity:1"
       d="m 27.5,22.5 v -13 c 0,-3 -1,-3 -1.5,-3 -0.5,0 -1.5,0 -1.5,3 v 13 c 0,3 1,3 1.5,3 0.5,0 1.5,0 1.5,-3 z m -6,0 v -13 c 0,-3 -1,-3 -1.5,-3 -0.5,0 -1.5,0 -1.5,3 v 13 c 0,3 1,3 1.5,3 0.5,0 1.5,0 1.5,-3 z m -7.5,5 v -2 c 1,0 1.5,0 1.5,-3 v -13 c 0,-3 -0.98024,-2.9901195 -1.5,-3 -0.51976,-0.00988 -1.166667,1 -1.5,3 l -3,18 h -5 l -3,-18 C 1.1666667,7.5 0.5296402,6.5296416 0,6.5 v -2 h 5.5 v 2 c -1,0 -1.3333333,1 -1,3 l 2.5,15 2.5,-15 c 0.333333,-2 0,-3 -1,-3 v -2 H 32 v 2 c -0.5,0 -1.5,0 -1.5,3 v 13 c 0,3 0.5,3 1.5,3 v 2 z"
       sodipodi:nodetypes="sszsszssszsszsccsszsccsccccscsccccssccc" />
  </g>
</svg>
