<?xml version="1.0" encoding="UTF-8" standalone="no"?>
<!-- Created with Inkscape (http://www.inkscape.org/) -->

<svg
   width="32"
   height="32"
   viewBox="0 0 32 32"
   version="1.1"
   id="svg1"
   inkscape:version="1.3 (0e150ed6c4, 2023-07-21)"
   sodipodi:docname="plantgatherers.svg"
   xmlns:inkscape="http://www.inkscape.org/namespaces/inkscape"
   xmlns:sodipodi="http://sodipodi.sourceforge.net/DTD/sodipodi-0.dtd"
   xmlns="http://www.w3.org/2000/svg"
   xmlns:svg="http://www.w3.org/2000/svg">
  <sodipodi:namedview
     id="namedview1"
     pagecolor="#ffffff"
     bordercolor="#666666"
     borderopacity="1.0"
     inkscape:showpageshadow="2"
     inkscape:pageopacity="0.0"
     inkscape:pagecheckerboard="true"
     inkscape:deskcolor="#d1d1d1"
     inkscape:document-units="px"
     showgrid="true"
     inkscape:zoom="22.627417"
     inkscape:cx="9.2807764"
     inkscape:cy="10.628699"
     inkscape:window-width="1920"
     inkscape:window-height="1011"
     inkscape:window-x="1440"
     inkscape:window-y="32"
     inkscape:window-maximized="1"
     inkscape:current-layer="layer1">
    <inkscape:grid
       id="grid1"
       units="px"
       originx="0"
       originy="0"
       spacingx="1"
       spacingy="1"
       empcolor="#3f3fff"
       empopacity="0.25098039"
       color="#3f3fff"
       opacity="0.1254902"
       empspacing="8"
       dotted="false"
       gridanglex="30"
       gridanglez="30"
       visible="true" />
  </sodipodi:namedview>
  <defs
     id="defs1" />
  <g
     inkscape:label="Calque 1"
     inkscape:groupmode="layer"
     id="layer1">
    <path
       style="fill:#5a9534;fill-opacity:1;fill-rule:evenodd;stroke:#2b4819;stroke-width:1px;stroke-linecap:butt;stroke-linejoin:miter;stroke-opacity:1"
       d="m 28,24 c 2.956623,-2.501292 2.097962,-4.27351 1,-6 1.889902,-3.233765 1.478052,-5.339962 -2,-5.944107 C 27.238462,8.2714987 25.924278,6.4916932 22,8.0817256 19.403087,4.8872901 17.702064,6.005077 16,7.1178524 14.270382,5.9214646 12.490457,5.002385 10,8 6.4121647,6.7181789 4.6400482,7.9079706 5,12 0.80614897,12.796414 1.7034836,15.32897 3.006886,18 1.2710668,20.041919 1.7410489,22.039101 4,24 c -0.934759,2.573136 -0.1159638,4.022587 3,4 2.5919725,2.373522 5.709113,2.466357 9,1.804653 3.8207,0.95125 6.726733,0.146741 9,-1.872402 C 27.986933,27.996786 29.007224,26.70008 28,24 Z"
       id="path14"
       sodipodi:nodetypes="ccccccccccccc" />
    <circle
       style="fill:#31168e;fill-opacity:1;stroke:none;stroke-width:2;stroke-opacity:1"
       id="path15"
       cx="24"
       cy="14"
       r="1" />
    <circle
       style="fill:#31168e;fill-opacity:1;stroke:none;stroke-width:2;stroke-opacity:1"
       id="circle15"
       cx="18"
       cy="10"
       r="1" />
    <circle
       style="fill:#31168e;fill-opacity:1;stroke:none;stroke-width:2;stroke-opacity:1"
       id="circle16"
       cx="10"
       cy="11"
       r="1" />
    <circle
       style="fill:#31168e;fill-opacity:1;stroke:none;stroke-width:2;stroke-opacity:1"
       id="circle17"
       cx="13"
       cy="16"
       r="1" />
    <circle
       style="fill:#31168e;fill-opacity:1;stroke:none;stroke-width:2;stroke-opacity:1"
       id="circle18"
       cx="6"
       cy="17"
       r="1" />
    <circle
       style="fill:#31168e;fill-opacity:1;stroke:none;stroke-width:2;stroke-opacity:1"
       id="circle1"
       cx="26"
       cy="20"
       r="1" />
    <circle
       style="fill:#31168e;fill-opacity:1;stroke:none;stroke-width:2;stroke-opacity:1"
       id="circle2"
       cx="20"
       cy="18"
       r="1" />
    <circle
       style="fill:#31168e;fill-opacity:1;stroke:none;stroke-width:2;stroke-opacity:1"
       id="circle3"
       cx="9"
       cy="25"
       r="1" />
    <circle
       style="fill:#31168e;fill-opacity:1;stroke:none;stroke-width:2;stroke-opacity:1"
       id="circle4"
       cx="22"
       cy="25"
       r="1" />
    <circle
       style="fill:#31168e;fill-opacity:1;stroke:none;stroke-width:2;stroke-opacity:1"
       id="circle5"
       cx="14"
       cy="22"
       r="1" />
  </g>
</svg>
